<svg width="44" height="44" viewBox="0 0 44 44" fill="none" xmlns="http://www.w3.org/2000/svg">
<rect width="44" height="44" rx="22" fill="#210AA4"/>
<path d="M30.1099 27.49L24.9999 18.73V14H25.9999C26.2651 14 26.5195 13.8946 26.707 13.7071C26.8945 13.5196 26.9999 13.2652 26.9999 13C26.9999 12.7348 26.8945 12.4804 26.707 12.2929C26.5195 12.1054 26.2651 12 25.9999 12H17.9999C17.7347 12 17.4803 12.1054 17.2928 12.2929C17.1053 12.4804 16.9999 12.7348 16.9999 13C16.9999 13.2652 17.1053 13.5196 17.2928 13.7071C17.4803 13.8946 17.7347 14 17.9999 14H18.9999V18.73L13.8899 27.49C13.6244 27.9457 13.4838 28.4634 13.4822 28.9908C13.4806 29.5182 13.618 30.0367 13.8806 30.494C14.1433 30.9514 14.5219 31.3314 14.9782 31.5958C15.4345 31.8602 15.9525 31.9996 16.4799 32H27.4799C28.0073 31.9996 28.5253 31.8602 28.9816 31.5958C29.4379 31.3314 29.8165 30.9514 30.0792 30.494C30.3418 30.0367 30.4792 29.5182 30.4776 28.9908C30.476 28.4634 30.3354 27.9457 30.0699 27.49H30.1099ZM20.8599 19.49C20.9481 19.3415 20.9963 19.1727 20.9999 19V14H22.9999V19C23.0017 19.1761 23.05 19.3486 23.1399 19.5L23.9999 21H19.9999L20.8599 19.49ZM28.3799 29.49C28.2926 29.6411 28.1674 29.7668 28.0165 29.8545C27.8656 29.9422 27.6944 29.9889 27.5199 29.99H16.5199C16.3454 29.9889 16.1742 29.9422 16.0233 29.8545C15.8724 29.7668 15.7472 29.6411 15.6599 29.49C15.5721 29.338 15.5259 29.1655 15.5259 28.99C15.5259 28.8145 15.5721 28.642 15.6599 28.49L18.8299 23H25.1799L28.3799 28.5C28.4677 28.652 28.5139 28.8245 28.5139 29C28.5139 29.1755 28.4677 29.348 28.3799 29.5V29.49ZM19.9999 25C19.8021 25 19.6088 25.0586 19.4443 25.1685C19.2799 25.2784 19.1517 25.4346 19.076 25.6173C19.0003 25.8 18.9805 26.0011 19.0191 26.1951C19.0577 26.3891 19.1529 26.5673 19.2928 26.7071C19.4326 26.847 19.6108 26.9422 19.8048 26.9808C19.9988 27.0194 20.1999 26.9996 20.3826 26.9239C20.5653 26.8482 20.7215 26.72 20.8314 26.5556C20.9413 26.3911 20.9999 26.1978 20.9999 26C20.9999 25.7348 20.8945 25.4804 20.707 25.2929C20.5195 25.1054 20.2651 25 19.9999 25ZM23.9999 26C23.8021 26 23.6088 26.0586 23.4443 26.1685C23.2799 26.2784 23.1517 26.4346 23.076 26.6173C23.0003 26.8 22.9805 27.0011 23.0191 27.1951C23.0577 27.3891 23.1529 27.5673 23.2928 27.7071C23.4326 27.847 23.6108 27.9422 23.8048 27.9808C23.9988 28.0194 24.1999 27.9996 24.3826 27.9239C24.5653 27.8482 24.7215 27.72 24.8314 27.5556C24.9413 27.3911 24.9999 27.1978 24.9999 27C24.9999 26.7348 24.8945 26.4804 24.707 26.2929C24.5195 26.1054 24.2651 26 23.9999 26Z" fill="white"/>
</svg>
