<svg width="46" height="46" viewBox="0 0 46 46" fill="none" xmlns="http://www.w3.org/2000/svg">
<rect width="46" height="46" rx="23" fill="#210AA4"/>
<path d="M23 23.8125C23 24.028 22.9144 24.2347 22.762 24.387C22.6097 24.5394 22.403 24.625 22.1875 24.625H17.3125C17.097 24.625 16.8903 24.5394 16.738 24.387C16.5856 24.2347 16.5 24.028 16.5 23.8125C16.5 23.597 16.5856 23.3903 16.738 23.238C16.8903 23.0856 17.097 23 17.3125 23H22.1875C22.403 23 22.6097 23.0856 22.762 23.238C22.9144 23.3903 23 23.597 23 23.8125ZM22.1875 19.75H17.3125C17.097 19.75 16.8903 19.8356 16.738 19.988C16.5856 20.1403 16.5 20.347 16.5 20.5625C16.5 20.778 16.5856 20.9847 16.738 21.137C16.8903 21.2894 17.097 21.375 17.3125 21.375H22.1875C22.403 21.375 22.6097 21.2894 22.762 21.137C22.9144 20.9847 23 20.778 23 20.5625C23 20.347 22.9144 20.1403 22.762 19.988C22.6097 19.8356 22.403 19.75 22.1875 19.75ZM33.5625 26.3993V32.75C33.5638 32.8932 33.5272 33.0343 33.4564 33.1588C33.3856 33.2833 33.2832 33.387 33.1594 33.4591C33.0357 33.5313 32.8951 33.5695 32.7518 33.5698C32.6086 33.5701 32.4678 33.5326 32.3438 33.4609L29.9062 32.0655L27.4688 33.4609C27.3447 33.5326 27.2039 33.5701 27.0607 33.5698C26.9174 33.5695 26.7768 33.5313 26.6531 33.4591C26.5293 33.387 26.4269 33.2833 26.3561 33.1588C26.2853 33.0343 26.2487 32.8932 26.25 32.75V30.3125H14.0625C13.6315 30.3125 13.2182 30.1413 12.9135 29.8365C12.6087 29.5318 12.4375 29.1185 12.4375 28.6875V15.6875C12.4375 15.2565 12.6087 14.8432 12.9135 14.5385C13.2182 14.2337 13.6315 14.0625 14.0625 14.0625H31.9375C32.3685 14.0625 32.7818 14.2337 33.0865 14.5385C33.3913 14.8432 33.5625 15.2565 33.5625 15.6875V18.7882C34.0761 19.2801 34.4849 19.8708 34.7641 20.5248C35.0433 21.1788 35.1873 21.8826 35.1873 22.5937C35.1873 23.3049 35.0433 24.0087 34.7641 24.6627C34.4849 25.3167 34.0761 25.9074 33.5625 26.3993ZM26.25 28.6875V26.3993C25.3646 25.5454 24.805 24.4092 24.6678 23.1868C24.5307 21.9644 24.8245 20.7324 25.4987 19.7035C26.1728 18.6746 27.1849 17.9133 28.3605 17.551C29.536 17.1886 30.8011 17.2479 31.9375 17.7187V15.6875H14.0625V28.6875H26.25ZM31.9375 27.4687C31.294 27.7376 30.6036 27.876 29.9062 27.876C29.2089 27.876 28.5185 27.7376 27.875 27.4687V31.3505L29.5 30.4202C29.6228 30.35 29.7618 30.3131 29.9032 30.3131C30.0446 30.3131 30.1836 30.35 30.3064 30.4202L31.9314 31.3505L31.9375 27.4687ZM33.5625 22.5937C33.5625 21.8706 33.3481 21.1637 32.9463 20.5624C32.5446 19.9612 31.9735 19.4925 31.3054 19.2158C30.6373 18.9391 29.9022 18.8667 29.193 19.0078C28.4837 19.1488 27.8322 19.4971 27.3209 20.0084C26.8096 20.5197 26.4613 21.1712 26.3203 21.8805C26.1792 22.5897 26.2516 23.3248 26.5283 23.9929C26.805 24.661 27.2737 25.2321 27.8749 25.6338C28.4762 26.0356 29.1831 26.25 29.9062 26.25C30.3864 26.25 30.8618 26.1554 31.3054 25.9717C31.749 25.7879 32.1521 25.5186 32.4916 25.1791C32.8311 24.8396 33.1004 24.4365 33.2842 23.9929C33.4679 23.5493 33.5625 23.0739 33.5625 22.5937Z" fill="white"/>
</svg>
