<svg width="68" height="54" viewBox="0 0 68 54" fill="none" xmlns="http://www.w3.org/2000/svg">
<g clip-path="url(#clip0_10_81)">
<path d="M61 40.5C61 42.0913 60.3679 43.6174 59.2426 44.7426C58.1174 45.8679 56.5913 46.5 55 46.5H43V7.5H55C56.5913 7.5 58.1174 8.13214 59.2426 9.25736C60.3679 10.3826 61 11.9087 61 13.5V40.5Z" fill="#ED2939"/>
<path d="M13 7.5C11.4087 7.5 9.88258 8.13214 8.75736 9.25736C7.63214 10.3826 7 11.9087 7 13.5L7 40.5C7 42.0913 7.63214 43.6174 8.75736 44.7426C9.88258 45.8679 11.4087 46.5 13 46.5H25V7.5H13Z" fill="#002495"/>
<path d="M25 7.5H43V46.5H25V7.5Z" fill="#EEEEEE"/>
</g>
<defs>
<clipPath id="clip0_10_81">
<rect width="54" height="54" fill="white" transform="translate(7)"/>
</clipPath>
</defs>
</svg>
