<svg width="44" height="44" viewBox="0 0 44 44" fill="none" xmlns="http://www.w3.org/2000/svg">
<rect width="44" height="44" rx="22" fill="#210AA4"/>
<path d="M28 18H27V16C27 13.24 24.76 11 22 11C19.24 11 17 13.24 17 16V18H16C14.9 18 14 18.9 14 20V30C14 31.1 14.9 32 16 32H28C29.1 32 30 31.1 30 30V20C30 18.9 29.1 18 28 18ZM19 16C19 14.34 20.34 13 22 13C23.66 13 25 14.34 25 16V18H19V16ZM28 30H16V20H28V30ZM22 27C23.1 27 24 26.1 24 25C24 23.9 23.1 23 22 23C20.9 23 20 23.9 20 25C20 26.1 20.9 27 22 27Z" fill="white"/>
</svg>
